HIERARCHY
ROOT SpineBase
{
  OFFSET 0.000000 0.000000 0.000000
  CHANNELS 6 Xposition Yposition Zposition Zrotation Xrotation Yrotation
  JOINT SpineMid
  {
    OFFSET 0.000000 25.476136 0.000000
    CHANNELS 3 Zrotation Xrotation Yrotation
    JOINT SpineShoulder
    {
      OFFSET -0.061380 19.180270 -0.756511
      CHANNELS 3 Zrotation Xrotation Yrotation
      JOINT Neck
      {
        OFFSET -0.045353 6.377869 -0.582644
        CHANNELS 3 Zrotation Xrotation Yrotation
        JOINT Head
        {
          OFFSET -0.445641 13.689184 2.514102
          CHANNELS 3 Zrotation Xrotation Yrotation
          End Site
          {
            OFFSET 0 0 0
          }
        }
      }
      JOINT ShoulderLeft
      {
        OFFSET -10.896904 0.487015 15.030526
        CHANNELS 3 Zrotation Xrotation Yrotation
        JOINT ElbowLeft
        {
          OFFSET -2.835631 -23.157214 -3.249930
          CHANNELS 3 Zrotation Xrotation Yrotation
          JOINT WristLeft
          {
            OFFSET -11.109647 3.961326 19.118885
            CHANNELS 3 Zrotation Xrotation Yrotation
            JOINT HandLeft
            {
              OFFSET -3.692038 1.224462 6.773111
              CHANNELS 3 Zrotation Xrotation Yrotation
              JOINT HandTipLeft
              {
                OFFSET -1.810223 -3.418294 -0.075241
                CHANNELS 3 Zrotation Xrotation Yrotation
                End Site
                {
                  OFFSET 0 0 0
                }
              }
              JOINT ThumbLeft
              {
                OFFSET -2.069482 2.721142 -2.809236
                CHANNELS 3 Zrotation Xrotation Yrotation
                End Site
                {
                  OFFSET 0 0 0
                }
              }
            }
          }
        }
      }
      JOINT ShoulderRight
      {
        OFFSET -5.569764 -8.627539 -6.304838
        CHANNELS 3 Zrotation Xrotation Yrotation
        JOINT ElbowRight
        {
          OFFSET 7.947091 -29.301638 -2.688394
          CHANNELS 3 Zrotation Xrotation Yrotation
          JOINT WristRight
          {
            OFFSET -10.867915 -22.104763 0.109012
            CHANNELS 3 Zrotation Xrotation Yrotation
            JOINT HandRight
            {
              OFFSET -3.589890 -7.485846 0.427219
              CHANNELS 3 Zrotation Xrotation Yrotation
              JOINT HandTipRight
              {
                OFFSET 0.143270 -1.579882 0.577106
                CHANNELS 3 Zrotation Xrotation Yrotation
                End Site
                {
                  OFFSET 0 0 0
                }
              }
              JOINT ThumbRight
              {
                OFFSET 0.636249 -1.322648 -0.475298
                CHANNELS 3 Zrotation Xrotation Yrotation
                End Site
                {
                  OFFSET 0 0 0
                }
              }
            }
          }
        }
      }
    }
  }
  JOINT HipLeft
  {
    OFFSET -1.939547 0.634824 -3.214110
    CHANNELS 3 Zrotation Xrotation Yrotation
    JOINT KneeLeft
    {
      OFFSET -1.364550 -34.084517 -0.040098
      CHANNELS 3 Zrotation Xrotation Yrotation
      JOINT AnkleLeft
      {
        OFFSET -11.232773 -39.548306 2.308745
        CHANNELS 3 Zrotation Xrotation Yrotation
        JOINT FootLeft
        {
          OFFSET -5.645244 1.732231 9.369676
          CHANNELS 3 Zrotation Xrotation Yrotation
          End Site
          {
            OFFSET 0 0 0
          }
        }
      }
    }
  }
  JOINT HipRight
  {
    OFFSET 1.438357 1.801213 -3.830923
    CHANNELS 3 Zrotation Xrotation Yrotation
    JOINT KneeRight
    {
      OFFSET -11.928512 -45.611220 1.252552
      CHANNELS 3 Zrotation Xrotation Yrotation
      JOINT AnkleRight
      {
        OFFSET -10.165546 -29.203781 17.484409
        CHANNELS 3 Zrotation Xrotation Yrotation
        JOINT FootRight
        {
          OFFSET 0.727004 10.957261 -7.160280
          CHANNELS 3 Zrotation Xrotation Yrotation
          End Site
          {
            OFFSET 0 0 0
          }
        }
      }
    }
  }
}
MOTION
Frames: 8
Frame Time: 0.033333
14.676438 84.460970 233.899283 -0.149033 29.810544 -22.677366 14.974892 -32.650816 26.925753 0.322161 37.658766 0.325516 5.887578 -6.367926 1.510141 0.000000 0.000000 0.000000 -1.459089 -49.467377 1.140470 0.505298 17.442642 3.183327 -0.071553 2.142958 7.733372 1.227112 -1.435158 -13.584280 0.000000 0.000000 0.000000 0.000000 0.000000 0.000000 28.536903 -62.225184 11.234292 -33.468378 20.428734 23.124781 0.388850 -0.480604 -0.542239 13.798456 3.418163 -2.005895 0.000000 0.000000 0.000000 0.000000 0.000000 0.000000 71.851169 -62.126866 73.482458 -3.434137 51.809673 -0.554682 -9.824436 -15.928162 9.552692 0.000000 0.000000 0.000000 31.037972 -46.391703 43.460104 -16.765488 5.537070 -3.884024 64.385029 -5.122002 25.881773 0.000000 0.000000 0.000000
6.944099 100.023593 224.692218 -0.681275 39.564698 -8.533712 10.018151 -51.375715 13.015880 0.202499 55.451494 0.805479 8.114592 -14.298207 3.227654 0.000000 0.000000 0.000000 -12.131257 -70.292294 -6.737094 -2.815943 14.243148 3.208941 3.089848 6.835099 17.344361 12.813570 7.310465 -26.541063 0.000000 0.000000 0.000000 0.000000 0.000000 0.000000 44.407002 -73.422909 28.219772 -30.696397 20.132255 24.281904 0.327329 -0.453976 -0.540895 13.523236 6.037333 -3.378271 0.000000 0.000000 0.000000 0.000000 0.000000 0.000000 107.800080 -73.457213 105.976762 -8.562360 55.238708 2.090331 -11.877996 -20.643603 17.465275 0.000000 0.000000 0.000000 33.691424 -67.040644 41.471233 -18.246521 13.195894 -3.706173 95.384704 -36.413652 62.383324 0.000000 0.000000 0.000000
-2.794023 120.717725 216.322026 -5.468362 58.631978 -12.770277 37.243988 -66.225075 38.022344 -6.087031 75.965228 7.745167 12.327706 -32.118451 8.045474 0.000000 0.000000 0.000000 -144.029644 -78.059040 -138.633963 -16.911875 -8.663929 -0.111741 15.804333 17.294348 25.862503 41.902300 20.856818 -49.478848 0.000000 0.000000 0.000000 0.000000 0.000000 0.000000 128.032560 -74.925630 111.930546 -29.557377 20.076075 24.521224 0.218412 -0.466955 -0.522136 13.764197 7.483079 -3.726559 0.000000 0.000000 0.000000 0.000000 0.000000 0.000000 133.049512 -53.385270 125.240328 -16.118468 54.353540 5.951534 -20.417155 -43.241732 25.333436 0.000000 0.000000 0.000000 120.110891 -64.778684 125.881939 -16.932820 27.011626 -3.621033 165.748208 -65.094375 152.607502 0.000000 0.000000 0.000000
-11.673690 138.716954 221.580589 -16.119497 61.945938 -10.182264 79.589499 -71.009725 73.962978 -108.144870 83.820054 109.643160 17.195385 -32.619825 11.579697 0.000000 0.000000 0.000000 -154.027543 -68.952940 -151.580073 -43.362373 -33.655619 -19.521148 38.944854 33.288398 26.995036 69.754790 11.697043 -69.876663 0.000000 0.000000 0.000000 0.000000 0.000000 0.000000 133.344445 -69.706986 113.143947 -30.344743 20.038175 23.953672 0.101561 -0.523228 -0.500652 14.453617 7.551803 -3.082838 0.000000 0.000000 0.000000 0.000000 0.000000 0.000000 124.979144 -42.598323 108.782395 -26.239606 48.346552 9.838858 -30.379389 -58.523740 19.827421 0.000000 0.000000 0.000000 125.598950 -57.742222 125.313516 -16.683366 27.876810 -3.674077 -119.429656 -47.202856 -113.500737 0.000000 0.000000 0.000000
-18.043310 156.671249 240.684243 -32.466192 50.088076 6.108403 125.575717 -77.726157 105.948887 -114.465330 68.431264 110.248572 30.008526 -19.021598 16.067761 0.000000 0.000000 0.000000 -141.462346 -82.733468 -149.738562 -62.200408 -37.588909 -39.234456 44.845341 23.412120 29.518903 119.391816 -17.785987 -108.168542 0.000000 0.000000 0.000000 0.000000 0.000000 0.000000 98.463558 -63.931136 63.397324 -32.890343 19.989502 22.444650 -0.021532 -0.604470 -0.490209 15.555096 6.269041 -1.426124 0.000000 0.000000 0.000000 0.000000 0.000000 0.000000 91.150911 -43.450373 63.857886 -27.308239 24.059757 4.934966 -60.553636 -69.684597 -11.811380 0.000000 0.000000 0.000000 99.108850 -68.468099 87.885039 -14.339625 21.176222 -4.475525 -99.880093 -27.444092 -81.562691 0.000000 0.000000 0.000000
-20.741222 178.825321 258.224299 -157.532171 -5.254351 131.541080 -96.574314 28.940472 121.511627 -52.962315 -63.539182 -12.732702 -173.218826 12.909514 -133.125685 0.000000 0.000000 0.000000 113.334020 64.347470 -72.900288 -71.515964 -35.422823 -52.557158 44.302057 18.959963 27.990177 146.523164 -42.828257 -133.725012 0.000000 0.000000 0.000000 0.000000 0.000000 0.000000 131.243054 29.942266 -115.313230 -36.842534 20.008820 19.731976 2.690098 -0.176950 -0.527070 16.062387 -5.936363 1.478785 0.000000 0.000000 0.000000 0.000000 0.000000 0.000000 -173.339689 3.801092 131.763234 -20.909657 2.275416 0.351089 -86.365964 -74.135553 -34.460099 0.000000 0.000000 0.000000 -139.798927 8.322049 141.725926 -13.887957 13.246265 -4.588685 -101.234444 -31.557746 -85.187583 0.000000 0.000000 0.000000
-20.716268 191.682397 285.787713 -170.734923 -42.378555 -160.373172 5.659328 21.372015 -3.752427 -0.439929 -9.503065 -2.654709 170.976005 47.205649 -165.574892 0.000000 0.000000 0.000000 -68.315065 76.050830 87.316309 -78.027277 -32.761510 -64.910115 33.764621 9.938626 22.170139 166.868113 -48.150141 -174.112632 0.000000 0.000000 0.000000 0.000000 0.000000 0.000000 117.163930 62.632270 -125.078041 -41.570871 20.212249 15.475951 -0.828360 -0.865620 -0.578861 21.248244 -6.726257 4.851082 0.000000 0.000000 0.000000 0.000000 0.000000 0.000000 167.018257 15.792803 -159.018447 -15.863347 -23.161167 -2.300155 -109.004188 -73.254255 -56.971692 0.000000 0.000000 0.000000 164.416506 58.201507 -149.657172 -14.461333 -0.759257 -4.455555 -103.907740 -41.218383 -92.858229 0.000000 0.000000 0.000000
-23.176147 176.105200 319.430821 -148.281408 -71.990279 -101.609969 -44.283196 -23.799465 -20.489165 49.645139 35.609868 -46.140555 80.128353 81.250683 -73.026908 0.000000 0.000000 0.000000 -28.581119 64.722788 42.795079 -84.649256 -30.530863 -79.192120 31.310809 9.862404 21.469507 169.290159 -44.758321 176.360273 0.000000 0.000000 0.000000 0.000000 0.000000 0.000000 78.021586 58.625503 -78.016459 -46.428127 20.697996 9.542259 -1.772838 0.482292 -1.219002 21.019669 2.522765 10.424911 0.000000 0.000000 0.000000 0.000000 0.000000 0.000000 147.365599 18.263310 -115.757743 -16.068316 -36.309209 -3.759222 -129.742264 -58.203204 -87.198632 0.000000 0.000000 0.000000 119.598411 41.935359 -102.363919 -14.711504 -24.535158 -4.467854 -91.371485 -46.092519 -82.222575 0.000000 0.000000 0.000000
